{
	"asset":{
		"generator":"Khronos glTF Blender I/O v4.1.63",
		"version":"2.0"
	},
	"scene":0,
	"scenes":[
		{
			"name":"Scene",
			"nodes":[
				0
			]
		}
	],
	"nodes":[
		{
			"mesh":0,
			"name":"Sphere"
		}
	],
	"materials":[
		{
			"doubleSided":true,
			"name":"vedal987",
			"pbrMetallicRoughness":{
				"baseColorTexture":{
					"index":0
				},
				"metallicFactor":0,
				"roughnessFactor":0.5
			}
		}
	],
	"meshes":[
		{
			"name":"Sphere",
			"primitives":[
				{
					"attributes":{
						"POSITION":0,
						"NORMAL":1,
						"TEXCOORD_0":2
					},
					"indices":3,
					"material":0
				}
			]
		}
	],
	"textures":[
		{
			"sampler":0,
			"source":0
		}
	],
	"images":[
		{
			"mimeType":"image/png",
			"name":"vedal987",
			"uri":"vedal987.png"
		}
	],
	"accessors":[
		{
			"bufferView":0,
			"componentType":5126,
			"count":1268,
			"max":[
				0.48603007197380066,
				0.7762251496315002,
				0.752408504486084
			],
			"min":[
				-0.486027330160141,
				0.00010907649993896484,
				-0.4981048107147217
			],
			"type":"VEC3"
		},
		{
			"bufferView":1,
			"componentType":5126,
			"count":1268,
			"type":"VEC3"
		},
		{
			"bufferView":2,
			"componentType":5126,
			"count":1268,
			"type":"VEC2"
		},
		{
			"bufferView":3,
			"componentType":5123,
			"count":1974,
			"type":"SCALAR"
		}
	],
	"bufferViews":[
		{
			"buffer":0,
			"byteLength":15216,
			"byteOffset":0,
			"target":34962
		},
		{
			"buffer":0,
			"byteLength":15216,
			"byteOffset":15216,
			"target":34962
		},
		{
			"buffer":0,
			"byteLength":10144,
			"byteOffset":30432,
			"target":34962
		},
		{
			"buffer":0,
			"byteLength":3948,
			"byteOffset":40576,
			"target":34963
		}
	],
	"samplers":[
		{
			"magFilter":9729,
			"minFilter":9987
		}
	],
	"buffers":[
		{
			"byteLength":44524,
			"uri":"vedal987.bin"
		}
	]
}
